<svg width="517" height="116" viewBox="0 0 517 116" fill="none" xmlns="http://www.w3.org/2000/svg">
<path d="M89.8686 16.1109C79.3232 0.957613 58.329 -3.4822 43.2364 6.07305L16.6309 23.0602C9.37487 27.5965 4.34401 35.0284 2.8928 43.4254C1.63509 50.4712 2.69931 57.71 6.08546 63.9837C3.76353 67.4583 2.21557 71.319 1.53834 75.3728C-0.0096157 83.9628 2.02208 92.8425 7.05294 99.8883C17.6951 115.042 38.5926 119.481 53.6851 109.926L80.2906 93.0355C87.5467 88.4992 92.5775 81.0673 94.0287 72.6703C95.2865 65.6245 94.2222 58.3857 90.8361 52.112C93.158 48.6374 94.706 44.7767 95.3832 40.7229C97.0279 32.0363 94.9962 23.1567 89.8686 16.1109Z" fill="white"/>
<path d="M40.6242 101.337C32.0137 103.557 23.0162 100.178 17.9853 92.9396C14.8894 88.6928 13.7285 83.3843 14.5992 78.1724C14.7927 77.3037 14.9862 76.5316 15.1797 75.6629L15.6634 74.1186L17.0179 75.0838C20.2105 77.4002 23.6934 79.1375 27.4666 80.2957L28.4341 80.5853L28.3373 81.5505C28.2406 82.9017 28.6276 84.3495 29.4015 85.5077C30.9495 87.7276 33.6584 88.7893 36.2706 88.1137C36.8511 87.9206 37.4316 87.7276 37.9153 87.4381L64.424 70.5475C65.7785 69.6788 66.6492 68.4241 66.9395 66.8798C67.2297 65.3355 66.8427 63.6947 65.972 62.44C64.424 60.2201 61.7151 59.2549 59.1029 59.9305C58.5225 60.1235 57.942 60.3166 57.4582 60.6061L47.2998 67.0728C45.6551 68.1345 43.8169 68.9067 41.8819 69.3892C33.2714 71.6092 24.2739 68.231 19.2431 60.9922C16.2439 56.7454 14.9862 51.4369 15.9537 46.225C16.8244 41.2061 19.9203 36.6697 24.2739 33.9672L50.8794 17.0766C52.5241 16.0149 54.3623 15.2428 56.2973 14.6637C64.9078 12.4438 73.9053 15.8219 78.9361 23.0607C82.0321 27.3075 83.193 32.616 82.3223 37.8279C82.1288 38.6966 81.9353 39.4688 81.6451 40.3374L81.1613 41.8817L79.8069 40.9165C76.6142 38.6001 73.1313 36.8628 69.3582 35.7046L68.3907 35.415L68.4874 34.4498C68.5842 33.0986 68.1972 31.6508 67.4232 30.4926C65.8753 28.2727 63.1663 27.3075 60.5542 27.9831C59.9737 28.1762 59.3932 28.3692 58.9094 28.6588L32.4007 45.5494C31.0462 46.418 30.1755 47.6728 29.8853 49.217C29.595 50.7613 29.982 52.4021 30.8527 53.6569C32.4007 55.8768 35.1096 56.8419 37.7218 56.1663C38.3023 55.9733 38.8828 55.7802 39.3665 55.4907L49.525 49.024C51.1697 47.9623 53.0079 47.1902 54.9428 46.6111C63.5533 44.3912 72.5508 47.7693 77.5817 55.0081C80.6776 59.2549 81.8386 64.5634 80.9678 69.7753C80.0971 74.7942 77.0012 79.3306 72.6476 82.0331L46.0421 98.9237C44.3974 99.9854 42.5592 100.758 40.6242 101.337Z" fill="black"/>
<path d="M148.42 65.9511C149.6 72.145 153.95 76.2005 161.176 76.2005C166.854 76.2005 170.688 73.9884 170.615 69.638C170.615 65.2138 166.78 62.633 157.711 60.3472C147.535 57.9139 140.088 53.416 140.088 45.01C140.088 35.7192 147.609 29.9678 158.743 29.9678C170.32 29.9678 178.062 37.0465 179.242 47.2221L169.804 47.7383C169.066 41.8394 164.789 38.0788 158.596 38.0788C153.287 38.0788 149.452 40.807 149.6 45.0838C149.674 50.319 156.015 51.8675 161.914 53.416C172.606 55.9967 180.127 60.9371 180.127 69.1218C180.127 79.0025 171.278 84.3852 160.808 84.3852C148.567 84.3852 139.867 77.3803 138.982 66.4673L148.42 65.9511ZM222.845 44.4201L208.467 83.5004H198.365L183.986 44.4201H193.056L203.379 74.2096L213.702 44.4201H222.845ZM224.906 63.9603C224.906 51.5726 232.501 43.5353 244.077 43.5353C253.958 43.5353 261.995 50.1716 262.29 64.034V66.4673H234.492C234.934 73.1036 238.4 77.0116 244.077 77.0116C247.69 77.0116 250.935 74.947 252.41 71.5551L261.774 72.2187C259.415 79.7398 252.41 84.3852 244.077 84.3852C232.501 84.3852 224.906 76.348 224.906 63.9603ZM234.565 60.1997H252.852C252.041 53.3422 248.28 50.8352 244.077 50.8352C238.768 50.8352 235.377 54.3745 234.565 60.1997ZM270.825 31.1476H279.969V73.546C279.969 75.3894 280.927 76.2742 282.697 76.2742H285.794V83.5004H280.411C274.66 83.5004 270.825 79.8873 270.825 73.9147V31.1476ZM294.227 35.5718H303.37V44.4201H313.693V51.5726H303.37V71.6288C303.37 74.7258 304.845 76.2742 307.794 76.2742H313.693V83.5004H306.393C298.43 83.5004 294.227 79.4449 294.227 71.6288V51.5726H288.107V44.4201H294.227V35.5718ZM317.241 63.9603C317.241 51.5726 324.835 43.5353 336.412 43.5353C346.293 43.5353 354.33 50.1716 354.625 64.034V66.4673H326.826C327.269 73.1036 330.734 77.0116 336.412 77.0116C340.025 77.0116 343.27 74.947 344.744 71.5551L354.109 72.2187C351.749 79.7398 344.744 84.3852 336.412 84.3852C324.835 84.3852 317.241 76.348 317.241 63.9603ZM326.9 60.1997H345.187C344.376 53.3422 340.615 50.8352 336.412 50.8352C331.103 50.8352 327.711 54.3745 326.9 60.1997ZM375.642 83.5004L394.519 31.1476H405.579L424.456 83.5004H414.87L410.519 70.8177H389.578L385.228 83.5004H375.642ZM392.38 62.7805H407.717L400.049 40.3646L392.38 62.7805ZM430.945 94.5609V44.4201H439.572L439.793 50.1716C441.932 45.8949 445.987 43.5353 451.591 43.5353C462.873 43.5353 468.329 52.8261 468.329 63.9603C468.329 75.0945 462.873 84.3852 451.591 84.3852C446.356 84.3852 442.374 82.1731 440.088 78.0439V94.5609H430.945ZM439.351 63.9603C439.351 70.6703 442.374 76.8641 449.084 76.8641C455.942 76.8641 458.817 70.744 458.817 63.9603C458.817 57.1765 455.868 50.9827 449.084 50.9827C442.3 50.9827 439.351 57.2503 439.351 63.9603ZM475.717 94.5609V44.4201H484.344L484.565 50.1716C486.703 45.8949 490.759 43.5353 496.363 43.5353C507.645 43.5353 513.101 52.8261 513.101 63.9603C513.101 75.0945 507.645 84.3852 496.363 84.3852C491.128 84.3852 487.146 82.1731 484.86 78.0439V94.5609H475.717ZM484.123 63.9603C484.123 70.6703 487.146 76.8641 493.856 76.8641C500.713 76.8641 503.589 70.744 503.589 63.9603C503.589 57.1765 500.64 50.9827 493.856 50.9827C487.072 50.9827 484.123 57.2503 484.123 63.9603Z" fill="white"/>
</svg>
